<?xml version="1.0" encoding="UTF-8" standalone="no"?>
<svg
   xmlns="http://www.w3.org/2000/svg"
   viewBox="0 0 152.06343 139.66878"
   height="139.66878"
   id="svg3346">
  <metadata
     id="metadata3352">
    <rdf:RDF>
      <cc:Work
         rdf:about="">
        <dc:format>image/svg+xml</dc:format>
        <dc:type
           rdf:resource="http://purl.org/dc/dcmitype/StillImage" />
        <dc:title></dc:title>
      </cc:Work>
    </rdf:RDF>
  </metadata>
  <defs
     id="defs3350" />
  <path
     id="path3367"
     d="m 61.213552,138.53918 c -1.5068,-0.60694 -3.66825,-2.52076 -4.80321,-4.25295 -1.83385,-2.79881 -1.89391,-4.39104 -0.53954,-14.3019 2.64575,-19.36056 -2.28622,-30.183149 -13.7548,-30.183149 -5.96321,0 -6.58188,1.43166 -5.61991,13.005089 0.59435,7.15063 0.2982,9.70968 -1.52782,13.20238 -4.1465,7.9311 -16.0271,12.42714 -26.1215804,9.88532 -9.58386,-2.41324 -10.10872,-4.2222 -7.4972,-25.83945 1.21395,-10.048639 3.30849,-21.213759 4.65453,-24.811389 2.87479,-7.68355 8.9315604,-13.51865 16.0109104,-15.42493 5.85101,-1.57551 7.28954,-1.29012 26.93825,5.34427 13.39499,4.52281 16.33751,5.07538 27.5,5.16422 10.95184,0.0871 13.27359,-0.28755 18.746,-3.02551 7.153078,-3.57883 10.793018,-8.71224 8.634138,-12.17671 -0.75342,-1.20907 -4.409668,-3.66397 -8.124998,-5.45534 -5.23588,-2.52453 -7.88333,-4.91415 -11.77144,-10.625 -2.86807,-4.21264 -7.50545,-8.97388 -10.8287,-11.11795 -3.9212,-2.52985 -5.94947,-4.76679 -6.2337,-6.87501 -0.50275,-3.72919 -5.95415,-4.99835 -8.46652,-1.97111 -1.4076,1.69605 -1.97794,1.70013 -5.19374,0.0371 -4.77194,-2.46766 -7.6626,-7.0765 -7.16437,-11.4227604 0.30574,-2.66703 1.58248,-4.09398 5.27669,-5.89755 4.50531,-2.19955002 5.76988,-2.26195002 16.74386,-0.82621002 C 118.20959,7.5304106 152.12749,41.589651 152.06334,85.313561 c -0.0356,24.257679 -8.82419,37.276009 -25.1648,37.276009 -11.16789,0 -15.14165,-5.34139 -12.49711,-16.79815 1.83282,-7.940249 1.80922,-12.607839 -0.0732,-14.490309 -2.37914,-2.37914 -9.09906,-1.74683 -12.8579,1.20987 -4.755278,3.7405 -6.890858,9.563839 -6.899078,18.812479 -0.0131,14.74345 -3.49408,21.67336 -13.11802,26.1151 -5.26893,2.43176 -15.54725,2.99066 -20.23963,1.10055 z m 8.00535,-90.763949 c -1.68746,-1.68746 -0.88565,-5.38881 1.4366,-6.63164 3.04272,-1.62841 6.86547,1.04778 6.23542,4.36522 -0.46352,2.44052 -5.89375,4.0447 -7.67202,2.26642 z"
     style="fill:#272727" />
</svg>
